<svg width="477" height="97" viewBox="0 0 477 97" fill="none" xmlns="http://www.w3.org/2000/svg">
<g clip-path="url(#clip0_1339_500)">
<path d="M12.5 12.3992H22.9C32.4 12.3992 36.5 15.3992 36.5 21.4992C36.5 26.7992 32.3 30.3992 24 30.3992H12.6V12.3992H12.5ZM0 72.0992H25.4C38.7 72.0992 52.1 67.2992 52.1 51.9992C52.1 42.8992 45.7 35.9992 36.9 34.9992V34.7992C44.2 32.5992 49.1 27.2992 49.1 19.3992C49.1 6.5992 38.2 1.69922 27.5 1.69922H0V72.0992ZM12.5 41.0992H24.5C34.7 41.0992 39.4 43.6992 39.4 51.0992C39.4 60.3992 30.4 61.4992 24 61.4992H12.5V41.0992Z" fill="black"/>
<path d="M60.2031 0H72.1031V72.1H60.2031V0Z" fill="black"/>
<path d="M92.1031 48.1996C92.1031 40.6996 97.4031 33.8996 106.103 33.8996C114.903 33.8996 120.103 40.7996 120.103 48.1996C120.103 55.6996 114.803 62.4996 106.103 62.4996C97.4031 62.5996 92.1031 55.6996 92.1031 48.1996ZM80.2031 48.1996C80.2031 63.1996 91.7031 73.2996 106.203 73.2996C120.603 73.2996 132.203 63.1996 132.203 48.1996C132.203 33.1996 120.703 23.0996 106.203 23.0996C91.7031 23.1996 80.2031 33.1996 80.2031 48.1996Z" fill="black"/>
<path d="M149.5 48.1996C149.5 40.6996 154.8 33.8996 163.5 33.8996C172.3 33.8996 177.5 40.7996 177.5 48.1996C177.5 55.6996 172.2 62.4996 163.5 62.4996C154.7 62.5996 149.5 55.6996 149.5 48.1996ZM137.5 48.1996C137.5 63.1996 149 73.2996 163.5 73.2996C177.9 73.2996 189.5 63.1996 189.5 48.1996C189.5 33.1996 178 23.0996 163.5 23.0996C149.1 23.1996 137.5 33.1996 137.5 48.1996Z" fill="black"/>
<path d="M196.803 24.3992H208.103V31.8992H208.303C210.403 27.3992 215.003 23.1992 222.903 23.1992C230.303 23.1992 235.303 26.0992 237.803 32.0992C241.303 25.9992 246.403 23.1992 253.503 23.1992C266.203 23.1992 270.703 32.2992 270.703 43.6992V72.1992H258.803V45.0992C258.803 39.0992 257.003 33.9992 249.903 33.9992C242.403 33.9992 239.603 40.1992 239.603 46.2992V72.1992H227.703V43.6992C227.703 37.7992 225.303 33.8992 219.503 33.8992C211.603 33.8992 208.603 39.6992 208.603 45.9992V72.0992H196.703V24.3992H196.803Z" fill="black"/>
<path d="M320.1 48.2C320.1 55.7 314.8 62.5 306.1 62.5C297.3 62.5 292.1 55.6 292.1 48.2C292.1 40.7 297.4 33.9 306.1 33.9C314.8 33.9 320.1 40.8 320.1 48.2ZM280.5 72.1H291.8V64.9H292C295.5 70.7 301.8 73.3 308.4 73.3C323.1 73.3 332 62.4 332 48.2C332 34.1 322.5 23.1 308.9 23.1C299.9 23.1 295.2 27.3 292.7 30.4H292.4V0H280.5V72.1Z" fill="black"/>
<path d="M349.398 43.4996C350.298 36.5996 354.698 32.1996 361.698 32.1996C369.198 32.1996 373.698 36.5996 373.798 43.4996H349.398ZM385.798 52.3996V49.0996C385.798 32.4996 376.698 23.0996 363.398 23.0996C348.998 23.0996 337.398 33.1996 337.398 48.1996C337.398 63.1996 348.898 73.2996 363.398 73.2996C370.998 73.2996 377.998 70.5996 383.598 63.6996L374.998 57.1996C371.998 60.8996 368.098 63.6996 362.198 63.6996C355.498 63.6996 350.198 59.3996 349.398 52.3996H385.798Z" fill="black"/>
<path d="M393.602 24.3992H405.502V31.9992H405.702C408.302 26.4992 413.602 23.1992 419.802 23.1992C421.302 23.1992 422.702 23.4992 424.102 23.8992V35.3992C422.102 34.8992 420.202 34.4992 418.302 34.4992C407.102 34.4992 405.502 43.9992 405.502 46.4992V72.0992H393.602V24.3992Z" fill="black"/>
<path d="M450.897 33.8992C459.597 33.8992 464.997 39.6992 464.997 47.8992C464.997 55.8992 459.597 61.8992 450.797 61.8992C442.697 61.8992 436.797 55.5992 436.797 48.0992C436.797 39.6992 442.497 33.8992 450.897 33.8992ZM464.997 24.3992V31.5992H464.797C461.297 25.7992 454.997 23.1992 448.397 23.1992C433.697 23.1992 424.797 34.1992 424.797 48.2992C424.797 61.7992 434.297 72.7992 448.597 72.7992C454.597 72.7992 460.697 70.4992 464.197 65.7992H464.397V69.2992C464.397 78.7992 460.797 85.2992 449.297 85.2992C442.597 85.2992 437.697 82.7992 432.897 78.3992L425.697 88.1992C432.497 94.1992 440.497 96.0992 449.397 96.0992C467.997 96.0992 476.397 85.1992 476.397 67.8992V24.3992H464.997Z" fill="black"/>
</g>
<defs>
<clipPath id="clip0_1339_500">
<rect width="476.4" height="96.1" fill="white"/>
</clipPath>
</defs>
</svg>
