<svg xmlns="http://www.w3.org/2000/svg" width="500" height="139"><path fill="#f2f2f2" fill-rule="evenodd" d="M50.207 79.849c-3.088 3.087-6.81 4.63-11.168 4.63s-8.083-1.543-11.17-4.63c-3.088-3.088-4.632-6.81-4.632-11.168 0-4.361 1.544-8.069 4.632-11.132 3.087-3.061 6.811-4.59 11.17-4.59s8.08 1.529 11.168 4.59c3.087 3.063 4.631 6.77 4.631 11.132 0 4.358-1.544 8.08-4.631 11.168zm5.94-23.688c-5.146-3.485-10.861-5.228-17.149-5.228-6.287 0-12.03 1.743-17.225 5.228-4.833 3.224-8.418 7.41-10.754 12.558 2.336 5.148 5.921 9.36 10.754 12.637 5.196 3.43 10.938 5.146 17.225 5.146 6.288 0 12.003-1.716 17.15-5.146C61.03 78.08 64.64 73.867 66.98 68.72c-2.339-5.148-5.95-9.334-10.833-12.558zm48.558 19.918V55.967L87.642 76.079zm23.473 13.825h-7.98v11.879h-15.492V89.904H72.409v-14.65l32.297-38.331h15.492V76.08h7.98zm-68.124-.132c-5.814 5.812-12.817 8.717-21.017 8.717-8.198 0-15.215-2.905-21.053-8.717C12.147 83.962 9.23 76.93 9.23 68.68c0-8.197 2.918-15.203 8.755-21.014 5.838-5.812 12.855-8.717 21.053-8.717 8.2 0 15.203 2.905 21.017 8.717 5.809 5.81 8.717 12.817 8.717 21.014 0 8.25-2.908 15.282-8.717 21.093zM0 138.41h138.113V.296H0zm234.61-91.835c11.615 0 17.422-8.611 17.422-8.611l-5.807-6.151s-4.066 6.15-11.615 6.15c-7.26 0-13.066-6.15-13.066-13.84s5.807-13.842 13.066-13.842c7.26 0 11.323 6.152 11.323 6.152l5.81-6.152s-5.81-8.611-17.133-8.611c-12.487 0-22.068 10.15-22.068 22.453s9.581 22.452 22.068 22.452m38.386-8.92h-9.002V27.199h9.002c3.485 0 5.517 2.152 5.517 5.227 0 3.076-2.032 5.23-5.517 5.23zm-9.002-27.067h7.841c2.903 0 4.646 1.848 4.646 4.309s-1.743 4.305-4.646 4.305h-7.84zm23.52 22.762c0-8.305-7.548-10.457-7.548-10.457l.369-.17c1.235-.625 5.147-3.052 5.147-8.75 0-6.151-4.937-11.381-13.068-11.381h-17.13v43.06h18.294c8.71 0 13.936-5.536 13.936-12.302zm16.434 4.921c-6.099 0-9.581-4.615-9.581-4.615l-5.809 6.154s5.227 6.766 15.68 6.766c9.583 0 15.39-6.151 15.39-13.226 0-15.071-20.326-11.687-20.326-19.068 0-2.463 1.743-4.309 6.099-4.309 4.645 0 7.549 3.693 7.549 3.693l5.806-6.153S314.11 1.67 305.109 1.67c-9.292 0-14.809 5.842-14.809 12.61 0 15.07 20.326 11.688 20.326 19.069 0 2.767-2.033 4.921-6.678 4.921m38.908-19.377 19.746 26.759h7.838V2.592h-8.71V29.35L341.985 2.591h-7.841v43.06h8.712zm42.219 8.92h16.84v-8.306h-16.84v-8.303h21.485V2.593h-30.195V45.65h30.777v-8.612h-22.067zm75.494-25.221-8.42 28.912h-.29l-8.422-28.912h-8.13l-8.42 28.912h-.29l-8.42-28.912h-9.002l13.358 43.06h8.42l8.245-27.989h.35l8.245 27.989h8.42l13.358-43.06zm19.106 11.688c0-2.46 1.742-4.306 6.098-4.306 4.646 0 7.55 3.69 7.55 3.69l5.806-6.15s-4.646-5.845-13.648-5.845c-9.29 0-14.808 5.844-14.808 12.61 0 15.072 20.325 11.688 20.325 19.07 0 2.768-2.032 4.92-6.677 4.92-6.099 0-9.581-4.612-9.581-4.612l-5.81 6.151s5.228 6.766 15.68 6.766c9.584 0 15.39-6.15 15.39-13.226 0-15.069-20.325-11.687-20.325-19.068M198.57 24.09c0 3.447-1.221 6.393-3.662 8.834-2.444 2.441-5.388 3.662-8.835 3.662s-6.39-1.22-8.831-3.662c-2.444-2.441-3.665-5.387-3.665-8.834s1.22-6.38 3.665-8.803c2.44-2.42 5.385-3.63 8.831-3.63s6.39 1.21 8.835 3.63c2.44 2.422 3.662 5.356 3.662 8.803zm9.602.031c-1.85-4.071-4.705-7.381-8.568-9.933-4.067-2.754-8.588-4.133-13.562-4.133-4.97 0-9.514 1.379-13.62 4.133-3.823 2.552-6.66 5.862-8.507 9.933 1.848 4.071 4.684 7.403 8.506 9.993 4.107 2.714 8.65 4.07 13.621 4.07 4.974 0 9.495-1.356 13.562-4.07 3.863-2.59 6.718-5.922 8.568-9.993zm1.417-.031c0 6.525-2.3 12.087-6.896 16.682-4.595 4.596-10.136 6.893-16.62 6.893s-12.034-2.297-16.65-6.893c-4.615-4.595-6.925-10.157-6.925-16.682 0-6.484 2.31-12.022 6.924-16.62C174.04 2.876 179.591.578 186.074.578s12.025 2.298 16.62 6.893c4.596 4.598 6.896 10.136 6.896 16.62zm-5.358 91.784-31.9-42.148v64.977h-8.576V58.86h7.4l33.076 43.374 33.075-43.374h7.405v79.843h-8.518V73.727zm65.501-57.014h8.576v79.842h-8.576zm61.53 11.97-15.423 37.641h30.789zm-18.82 45.657-9.128 22.216h-9.133l33.072-79.843h7.96l33.076 79.843h-9.079l-9.128-22.216zm112.224-.613-31.9-42.148v64.977h-8.576V58.86h7.4l33.076 43.374L457.74 58.86h7.406v79.843h-8.518V73.727zm65.502-57.014h8.576v79.842h-8.576z"/></svg>