<svg width="220" height="16" viewBox="0 0 220 16" fill="none" xmlns="http://www.w3.org/2000/svg">
<path d="M0.1 15.3H6.5V14.8C6.1 14.8 4.7 14.4 4.3 14.1C3.8 13.7 3.6 12.8 3.6 11.1V3.1V2.3L7.6 12C7.9 12.8 8.5 14.4 8.7 15.1H9.3L14.7 2V13.4C14.7 13.9 14.5 14.3 14 14.5C13.7 14.7 12.6 14.8 12.2 14.8V15.3H19.8V14.8C19.4 14.8 18.4 14.6 18.2 14.5C17.7 14.2 17.5 13.9 17.5 13.4V2.2C17.5 1.7 17.6 1.3 18.2 1.1C18.6 1 19.4 0.8 19.8 0.8V0.3H14.3C14.3 0.6 14.1 1.4 13.8 2.2L10.2 10.9L5.8 0.3H0.2V0.8C0.8 0.9 1.6 1 2.1 1.5C2.5 1.8 2.7 2.4 2.7 3.3V11.3C2.7 13 2.5 13.9 2 14.3C1.5 14.7 0.4 14.8 0 14.9L0.1 15.3ZM25.9 10.1H30.9L32.2 13.5C32.3 13.7 32.3 13.8 32.3 14C32.3 14.6 30.9 14.8 30.2 14.9V15.4H37.5V14.9C37.1 14.9 36.5 14.7 36.1 14.5C35.6 14.2 35.4 13.9 35.3 13.5C34.7 12 31.9 4.5 30.2 0.3H29C27.7 3.5 25.2 10.1 24 12.9C23.7 13.7 23.3 14.3 22.8 14.6C22.4 14.9 21.7 15 21.4 15V15.5H27.3V15C26.6 14.9 24.9 14.6 24.9 13.8C24.9 13.5 25 13 25.2 12.5C25.2 12.2 25.5 11.3 25.9 10.1ZM26.2 9.3C26.8 7.5 27.7 5.3 28.4 3.5L30.6 9.3H26.2ZM51.5 15.4H52.6V4.3C52.6 2.8 52.8 1.7 53.3 1.3C53.7 1 54.9 0.8 55.3 0.7V0.3H49V0.8C49.4 0.8 50.7 1.2 51.1 1.5C51.6 1.8 51.8 2.9 51.8 4.5V11.3L43.4 0.3H38.5V0.8C39.2 0.9 40.2 1.4 40.7 1.8C41.2 2.2 41.4 2.9 41.4 3.5V11.2C41.4 12.9 41.2 13.8 40.7 14.2C40.3 14.5 39.1 14.8 38.7 14.8V15.3H45V14.8C44.6 14.8 43.3 14.4 42.9 14.1C42.4 13.7 42.2 12.8 42.2 11.1V3.4L51.5 15.4ZM63.1 15.6C66.1 15.6 68.3 13.7 68.3 11C68.3 8.7 67.2 7.7 65.4 6.9C64.6 6.5 63.5 6.2 62.5 5.7C61 5.1 60.4 4.3 60.4 3C60.4 1.5 61.5 0.7 62.6 0.7C64.8 0.7 66.1 2.5 67.1 5.2H67.6L67.5 0.1H66.7L66.1 1C65.3 0.5 64 0 62.7 0C59.9 0 58 1.9 58 4.2C58 6.1 58.8 7.5 60.6 8.2C61.6 8.6 62.5 8.9 63.5 9.4C64.9 10 65.7 10.9 65.7 12.2C65.7 13.8 64.8 14.9 63 14.9C60.5 14.9 58.9 12.4 58.1 10.2H57.6L57.7 15.5H58.4L59.1 14.5C59.9 15 61.1 15.6 63.1 15.6ZM71.4 15.3H78.7V14.8C78.3 14.8 77.4 14.5 77.1 14.5C76.6 14.3 76.5 13.9 76.5 13.5V2.2C76.5 1.7 76.6 1.3 77.1 1.2C77.5 1.1 78.3 0.9 78.7 0.9V0.3H71.4V0.8C71.8 0.8 72.6 1.1 73 1.2C73.5 1.4 73.7 1.8 73.7 2.2V13.4C73.7 13.9 73.5 14.3 73 14.4C72.7 14.5 71.8 14.6 71.4 14.7V15.3ZM89.2 15.7C91.4 15.7 93.2 15 94.6 13.7C96.2 12.2 96.9 10.1 96.9 7.8C96.9 5.5 96.1 3.5 94.7 2.2C93.2 0.7 91.3 0 89.3 0C87.2 0 85.4 0.7 83.9 2.2C82.5 3.6 81.6 5.6 81.6 8.1C81.6 10.5 82.5 12.4 83.9 13.7C85.3 15 87.2 15.7 89.2 15.7ZM89.3 15C86.3 15 84.9 11.8 84.9 7.9C84.9 3.4 86.5 0.7 89.3 0.7C92.6 0.7 93.7 4.3 93.7 7.8C93.7 11.8 92.3 15 89.3 15ZM112.3 15.4H113.4V4.3C113.4 2.8 113.6 1.7 114.1 1.3C114.5 1 115.7 0.8 116.1 0.7V0.3H109.8V0.8C110.2 0.8 111.5 1.2 111.9 1.5C112.4 1.8 112.6 2.9 112.6 4.5V11.3L104.2 0.4H99.3V0.9C100 1 101 1.5 101.5 1.9C102 2.3 102.2 3 102.2 3.6V11.3C102.2 13 102 13.9 101.5 14.3C101.1 14.6 99.9 14.9 99.5 14.9V15.4H105.8V14.9C105.4 14.9 104.1 14.5 103.7 14.2C103.2 13.8 103 12.9 103 11.2V3.4L112.3 15.4ZM140.4 9.1V8.8H133.4V9.1C133.8 9.1 135.2 9.2 135.8 9.4C136.4 9.6 136.5 10.2 136.5 10.8V12C136.5 13.5 135.2 15.1 132.5 15.1C129.7 15.1 127.3 12.1 127.3 8.2C127.3 3.3 129.8 0.6 132.3 0.6C135.5 0.6 137.3 3.4 137.9 5.4H138.2L138.1 0.2H137.9L137.2 1.5C136.1 0.8 134.7 0.2 132.9 0.2C129 0.2 125.4 3.9 125.4 8.3C125.4 13 128.9 15.7 131.7 15.7C133.6 15.7 135.4 15.2 136.9 14.6L138 15.9L138.2 15.7V10.5C138.2 10 138.3 9.6 138.8 9.3C139.2 9.2 140.1 9.2 140.4 9.1ZM155.1 11.2H154.8C154.6 11.8 153.4 13.8 152.9 14.3C152.5 14.8 150.7 14.9 149.4 14.9C147 14.9 146.8 14.7 146.8 12.9V2C146.8 1.5 146.9 1.1 147.5 0.9C147.9 0.8 148.7 0.6 149.1 0.6V0.3H143V0.6C143.4 0.6 144.1 0.9 144.5 1C145.1 1.3 145.2 1.6 145.2 2.1V13.7C145.2 14.2 145 14.6 144.5 14.8C144.2 14.9 143.4 15 143 15V15.3H154.8L155.1 11.2ZM172.4 7.7C172.4 5.6 171.7 3.5 170.5 2.3C168.8 0.6 167 0 165.1 0C163.2 0 161.3 0.7 159.9 2.2C158.6 3.5 157.8 5.4 157.8 8C157.8 10.4 158.6 12.2 160 13.5C161.4 14.9 163.1 15.6 165 15.6C167.2 15.6 168.9 14.8 170.2 13.5C171.8 11.9 172.4 10 172.4 7.7ZM170.4 7.8C170.4 12.1 168.6 15.2 165.1 15.2C161.6 15.2 159.8 12.1 159.8 8C159.8 3 162 0.4 165.1 0.4C168.2 0.5 170.4 3.1 170.4 7.8ZM187.9 11.4C187.9 8.3 184.7 7.4 183.4 7.3V7.2C185.5 6.6 187.1 5.8 187.1 3.4C187.1 1.1 184.7 0.3 183.4 0.3H176.3V0.6C176.7 0.6 177.2 0.8 177.7 0.9C178.2 1.1 178.4 1.5 178.4 2V13.7C178.4 14.2 178.2 14.5 177.7 14.7C177.4 14.8 176.5 15 176.1 15V15.3H183.6C184.8 15.3 187.9 14.1 187.9 11.4ZM185 3.6C185 5.5 184.2 7.2 181.8 7.2H180.1V0.7H182.2C183.4 0.7 185 1.2 185 3.6ZM185.7 10.9C185.7 12.6 185.2 14.9 182.2 14.9C180.8 14.9 180.2 14.6 180 13.3V7.7H182.2C184.5 7.6 185.7 9.2 185.7 10.9ZM205.4 15.3V15C205 15 204.4 14.9 204 14.6C203.5 14.3 203.3 14 203.1 13.5C202.3 11.5 200.1 5.6 197.9 0H197.6C196 4.2 194 9.1 192.5 12.8C192.2 13.6 191.6 14.2 191.1 14.5C190.7 14.8 190 14.9 189.6 14.9V15.2H195.5V14.9C194.6 14.9 192.9 14.5 192.9 13.7C192.9 13.4 193 13 193.2 12.5C193.4 11.8 193.7 11 194.2 9.7H199.7L201.2 13.6C201.3 13.8 201.3 14 201.3 14.1C201.3 14.7 199.8 14.9 199.1 14.9V15.2L205.4 15.3ZM199.7 9.4H194.6L197.1 2.8L199.7 9.4ZM219.8 11.2H219.5C219.3 11.8 218.1 13.8 217.6 14.3C217.2 14.8 215.4 14.9 214.1 14.9C211.7 14.9 211.5 14.7 211.5 12.9V2C211.5 1.5 211.6 1.1 212.2 0.9C212.6 0.8 213.4 0.6 213.8 0.6V0.3H207.7V0.6C208.1 0.6 208.8 0.9 209.2 1C209.8 1.3 209.9 1.6 209.9 2.1V13.7C209.9 14.2 209.7 14.6 209.2 14.8C208.9 14.9 208.1 15 207.7 15V15.3H219.5L219.8 11.2Z" fill="black"/>
</svg>
