<svg id="short-brand" width="102px" height="59px" viewbox="0 0 102 59" version="1.1" xmlns="http://www.w3.org/2000/svg" xmlns:xlink="http://www.w3.org/1999/xlink">
      <g id="" stroke="none" stroke-width="1" fill="none" fill-rule="evenodd">
          <g id="" transform="translate(-140.000000, -761.000000)" fill="#222222">
          <g id="" transform="translate(120.000000, 715.000000)">
              <g id="" transform="translate(20.000000, 46.000000)">
              <path
                  d="M24.7172859,10.5181058 C23.1518578,2.87604457 22.6575121,2.62952646 19.0323102,2.38300836 L19.0323102,1.06824513 L35.180937,1.06824513 L35.180937,2.38300836 C30.8142165,2.79387187 30.6494346,2.79387187 32.2972536,11.6685237 L37.5702746,39.7715877 L43.914378,9.53203343 C45.2326333,3.36908078 44.7382876,2.71169916 40.6187399,2.46518106 L39.3004847,2.38300836 L39.3004847,1.06824513 L50.7528271,1.06824513 L50.7528271,2.38300836 C47.2924071,2.71169916 47.2924071,3.53342618 45.8917609,10.189415 L35.5105008,59 L34.5218094,59 L25.7059774,15.2841226 L16.3957997,59 L15.4071082,59 L4.86106624,7.80640669 C3.95476575,3.28690808 3.78998384,2.62952646 0,2.38300836 L0,1.06824513 L15.6542811,1.06824513 L15.6542811,2.38300836 C11.6995153,2.79387187 11.5347334,3.20473538 13.1825525,11.6685237 L18.5379645,39.5250696 L24.634895,10.5181058 L24.7172859,10.5181058 Z M66.5718901,58.6713092 C60.8869144,58.6713092 57.5088853,53.4122563 56.19063,53.4122563 C54.7899838,53.4122563 53.2245557,56.4526462 52.73021,57.6852368 L51.5767367,57.6852368 L51.5767367,38.9498607 L52.73021,38.9498607 C56.273021,49.2214485 61.7932149,57.356546 66.4071082,57.356546 C69.1260097,57.356546 70.8562197,54.8913649 70.8562197,51.1935933 C70.8562197,37.6350975 51.8239095,28.8426184 51.8239095,12.0793872 C51.8239095,5.25905292 56.6025848,0 61.7932149,0 C66.4894992,0 69.0436187,3.77994429 70.6090468,3.77994429 C71.4329564,3.77994429 72.0096931,3.20473538 72.9983845,0.739554318 L73.904685,0.739554318 L73.904685,17.5027855 L72.7512116,17.5027855 C70.5266559,9.36768802 65.9951535,1.23259053 61.628433,1.23259053 C58.9095315,1.23259053 56.9321486,3.77994429 56.9321486,7.39554318 C56.9321486,20.4610028 75.9644588,28.7604457 75.9644588,46.0988858 C75.9644588,53.3300836 71.5977383,58.6713092 66.5718901,58.6713092 Z M86.3457189,58.6713092 C80.5783522,58.6713092 78.2714055,55.0557103 78.2714055,51.5222841 C78.2714055,47.9888579 80.4135703,44.4554318 83.5444265,44.4554318 C86.9224556,44.4554318 88.3231018,47.8245125 86.7576737,50.2896936 C85.4394184,52.3440111 81.9789984,52.5905292 81.9789984,54.2339833 C81.9789984,56.6991643 84.0387722,57.356546 85.7689822,57.356546 C90.7948304,57.356546 90.4652666,54.2339833 90.4652666,43.6337047 L90.4652666,6.08077994 C90.4652666,3.12256267 89.8061389,2.38300836 86.5928918,2.38300836 L85.3570275,2.38300836 L85.3570275,1.06824513 L102,1.06824513 L102,2.38300836 L100.599354,2.38300836 C98.8691438,2.38300836 98.2100162,3.12256267 98.2100162,6.16295265 L98.2100162,42.8941504 C98.2100162,53.2479109 90.7948304,58.6713092 86.3457189,58.6713092 Z"
                  id="WSJ"
              ></path>
              </g>
          </g>
          </g>
      </g>
      </svg>